# xmcd
#
# Track frame offsets:
#	150
#	11187
#	22080
#	32975
#	42757
#	52945
#	63867
#	75210
#	87847
#	100792
#	113807
#	124227
#	133852
#	146305
#	158042
#	167652
#	178590
#	192290
#	203015
#	214767
#	225762
#	234367
#	246372
#	257675
#	267995
#	278850
#	287955
#	301442
#
# Disc length: 4195 seconds
#
# Revision: 0
# Processed by: cddbd v1.5.2PL0 Copyright (c) Steve Scherf et al.
# Submitted via: dBpowerAMP V4.0
#
DISCID=7f10611c
DTITLE=Bonnie Owens - Queen Of The Coast Cd 4
DYEAR=2007
DGENRE=Country
TTITLE0=Yes, I Love You Only
TTITLE1=How Can Our Cheatin' Be Wrong
TTITLE2=When Billy Comes To Arkansas
TTITLE3=I'll Look Over You
TTITLE4=I'll Always Be Glad To Take You Back
TTITLE5=I Couldn't Keep From Cryin'
TTITLE6=Lead Me On
TTITLE7=Now I Lay Me Down To Sleep Alone
TTITLE8=I'll Kiss My Wedding Goodbye
TTITLE9=That Little Boy Of Mine
TTITLE10=Jealous Heart
TTITLE11=I Don't Care If Tomorrow Never Comes
TTITLE12=How Many
TTITLE13=What Else Can I Do
TTITLE14=It Don't Take Much To Make Me Cry
TTITLE15=My Hi - Fi To cry
TTITLE16=Philadelphia Lawyer
TTITLE17=Where Could I Go But To The Lord
TTITLE18=What A Friend We Have In Jesus
TTITLE19=Medals For Mother
TTITLE20=I'll Fly Away
TTITLE21=Wait A Little Longer,Please Jesus
TTITLE22=Gathering Flowers For The Master bouquet
TTITLE23=Where We'll Never Grow Old
TTITLE24=Where The Soul Never Dies
TTITLE25=I Saw The Light
TTITLE26=Farther Along
TTITLE27=Faded Love
EXTD=
EXTT0=
EXTT1=
EXTT2=
EXTT3=
EXTT4=
EXTT5=
EXTT6=
EXTT7=
EXTT8=
EXTT9=
EXTT10=
EXTT11=
EXTT12=
EXTT13=
EXTT14=
EXTT15=
EXTT16=
EXTT17=
EXTT18=
EXTT19=
EXTT20=
EXTT21=
EXTT22=
EXTT23=
EXTT24=
EXTT25=
EXTT26=
EXTT27=
PLAYORDER=
